<?xml version="1.0" encoding="UTF-8"?>
<svg id="Layer_1" data-name="Layer 1" xmlns="http://www.w3.org/2000/svg" viewBox="0 0 512.01 512">
  <defs>
    <style>
      .cls-1 {
        fill: #004cc6;
      }

      .cls-1, .cls-2 {
        stroke-width: 0px;
      }

      .cls-2 {
        fill: #fff;
      }
    </style>
  </defs>
  <path class="cls-1" d="m0,457V55c.32-1.1.74-2.19.95-3.32C4.66,32.59,14.74,17.76,31.74,8.43c7.15-3.92,15.48-5.69,23.27-8.43h402c.94.3,1.85.72,2.81.9,18.96,3.44,33.82,13.22,43.21,29.98,4.14,7.39,6.05,16.04,8.98,24.12v402c-.31.94-.74,1.86-.91,2.82-3.57,19.55-13.88,34.56-31.26,44.01-7.02,3.81-15.18,5.51-22.83,8.17h-114v-193.18h66.62c4.22-27.54,8.37-54.63,12.62-82.39h-78.5c0-21.36-1.28-42.23.36-62.87,1.62-20.38,15.58-32.75,35.87-34.51,11.59-1.01,23.29-.68,34.94-.92,3.43-.07,6.87,0,10.02,0,.39-.99.61-1.29.61-1.59.05-21.83.14-43.65-.03-65.48,0-1.26-1.97-3.32-3.33-3.62-4.54-1-9.2-1.46-13.83-1.96-23.03-2.49-46.1-5.16-69.22-1.43-34.97,5.65-61.19,23.33-75.63,56.49-6.6,15.15-9.5,31.18-9.64,47.66-.18,20.83-.1,41.66-.13,62.48v5.94h-72.41v82.51h72.41v6.44c0,59.99,0,119.97,0,179.96,0,2.16.16,4.32.25,6.48H55.01c-.93-.31-1.84-.73-2.8-.9-16.88-2.99-30.24-11.55-40.46-25.25-6.43-8.62-9.45-18.57-11.75-28.84h0Z"/>
  <path class="cls-2" d="m254.01,512c-.09-2.16-.25-4.32-.25-6.48,0-59.99,0-119.97,0-179.96v-6.44h-72.41v-82.51h72.41v-5.94c.03-20.83-.05-41.66.13-62.48.14-16.48,3.04-32.5,9.64-47.66,14.44-33.16,40.66-50.85,75.63-56.49,23.12-3.73,46.19-1.06,69.22,1.43,4.63.5,9.3.96,13.83,1.96,1.36.3,3.32,2.36,3.33,3.62.17,21.82.08,43.65.03,65.48,0,.3-.22.6-.61,1.59-3.15,0-6.59-.06-10.02,0-11.65.24-23.35-.09-34.94.92-20.29,1.76-34.25,14.13-35.87,34.51-1.64,20.64-.36,41.51-.36,62.87h78.5c-4.25,27.75-8.4,54.84-12.62,82.39h-66.62v193.18h-89.01Z"/>
</svg>