<?xml version="1.0" encoding="utf-8"?>
<!-- Generator: Adobe Illustrator 27.9.1, SVG Export Plug-In . SVG Version: 6.00 Build 0)  -->
<svg version="1.1" id="Layer_1" xmlns="http://www.w3.org/2000/svg" xmlns:xlink="http://www.w3.org/1999/xlink" x="0px" y="0px"
	 viewBox="0 0 512 512" style="enable-background:new 0 0 512 512;" xml:space="preserve">
<style type="text/css">
	.st0{fill:url(#SVGID_1_);}
	.st1{fill:#FFFFFF;}
</style>
<radialGradient id="SVGID_1_" cx="52" cy="478" r="643.2706" gradientUnits="userSpaceOnUse">
	<stop  offset="0" style="stop-color:#FFD97D"/>
	<stop  offset="0.1277" style="stop-color:#F8A166"/>
	<stop  offset="0.2387" style="stop-color:#F27755"/>
	<stop  offset="0.3257" style="stop-color:#EF5D4B"/>
	<stop  offset="0.3779" style="stop-color:#EE5447"/>
	<stop  offset="0.3796" style="stop-color:#EE5448"/>
	<stop  offset="0.4938" style="stop-color:#DC3F71"/>
	<stop  offset="0.5837" style="stop-color:#D1338B"/>
	<stop  offset="0.6377" style="stop-color:#CD2E94"/>
	<stop  offset="0.6995" style="stop-color:#B7369F"/>
	<stop  offset="0.8324" style="stop-color:#8E46B5"/>
	<stop  offset="0.9371" style="stop-color:#7450C2"/>
	<stop  offset="1" style="stop-color:#6B54C7"/>
</radialGradient>
<path class="st0" d="M503,30.9c-9.4-16.8-24.2-26.5-43.2-30c-1-0.2-1.9-0.6-2.8-0.9C323,0,189,0,55,0c-7.8,2.7-16.1,4.5-23.3,8.4
	C14.7,17.8,4.7,32.6,1,51.7C0.7,52.8,0.3,53.9,0,55c0,134,0,268,0,402l0,0c2.3,10.3,5.3,20.2,11.8,28.8
	c10.2,13.7,23.6,22.3,40.5,25.2c1,0.2,1.9,0.6,2.8,0.9h402c7.6-2.7,15.8-4.4,22.8-8.2c17.4-9.5,27.7-24.5,31.3-44
	c0.2-1,0.6-1.9,0.9-2.8V55C509.1,46.9,507.2,38.3,503,30.9z"/>
<path class="st1" d="M80.6,254.9c0-23.8,1.8-47.7,2.1-71.5c0.2-14.9,2.6-29.6,8.3-43.4c13.7-33.1,39.2-52,74-56.5
	c23.4-3,47.2-3,70.8-3.2c30.7-0.3,61.3,0.4,92,0.9c14.9,0.3,29.6,2.5,43.5,8.1c33.4,13.6,51.9,39.2,57.1,74.2
	c2.3,14.9,2.9,30.2,3,45.3c0.1,39.1-0.3,78.3-0.8,117.4c-0.2,13.9-2.2,27.6-7.1,40.7c-13.2,35.1-39.1,55.3-75.7,59.8
	c-24.4,3-49.2,2.9-73.8,3.2c-29.5,0.3-59-0.2-88.5-0.9c-22.7-0.5-44.4-5.2-63.2-18.7c-24.2-17.4-36.3-42-38.4-71
	c-2-28-2.1-56.2-3-84.4c0.6,0,0.2,0,0.8,0L80.6,254.9z M256.7,111.2c-25.6,0.7-51.3,0.9-76.9,2.1c-15.9,0.7-30.9,4.9-43.3,15.6
	c-15,12.9-21.3,30-21.6,48.8c-0.7,51.6-0.6,103.3,0,154.9c0.2,15.7,4.9,30.5,15.6,42.8c12.9,14.9,30.1,21.2,48.9,21.5
	c51.6,0.7,103.3,0.6,154.9,0c15.5-0.2,30.2-4.9,42.4-15.4c15-12.8,21.5-30,21.8-48.7c0.7-51.8,0.6-103.6,0-155.4
	c-0.2-16.6-5.5-32.1-17.4-44.6c-13-13.7-29.7-18.8-47.8-19.6C307.7,112.1,282.2,111.8,256.7,111.2L256.7,111.2z"/>
<path class="st1" d="M256.9,165.2c49.5,0.1,89.9,40.7,89.7,90.3c-0.2,49.5-40.9,89.8-90.4,89.5c-49.3-0.3-89.5-40.7-89.4-90
	C166.8,205.5,207.3,165.1,256.9,165.2L256.9,165.2z M314.9,255c0-32.2-25.9-58-58.1-58.1c-32.4-0.1-58.4,26-58.4,58.3
	c0.1,32.2,25.9,58,58.1,58.1C288.9,313.4,314.9,287.4,314.9,255z"/>
<path class="st1" d="M370.9,161.5c0.1,11.6-9.1,21.1-20.7,21.2c-11.5,0.1-21-9.3-21.2-20.9c-0.1-11.5,9.2-21,20.8-21.1
	C361.6,140.7,370.8,149.8,370.9,161.5L370.9,161.5z"/>
</svg>
