<?xml version="1.0" encoding="UTF-8"?>
<svg id="Layer_1" data-name="Layer 1" xmlns="http://www.w3.org/2000/svg" viewBox="0 0 167.82 114.35">
  <defs>
    <style>
      .cls-1 {
        fill: #445231;
        stroke-width: 0px;
      }
    </style>
  </defs>
  <path class="cls-1" d="m144.7,8.05c.57-.44.76.23,1.14.31.45-.18.51-.42.23-.84-.93-1.38-.89-1.36.34-2.55.41-.4.69-.93,1-1.43.74-1.16.73-1.17.78-2.57,0-.13-.01-.27.04-.39.06-.14.18-.24.27-.36.13.12.34.23.36.37.05.41-.03.83.04,1.23.09.59.26,1.16.4,1.74.02.1.13.22.11.29-.33,1.04.53,1.69.83,2.52.23.62.71.98,1.62.76-.32.67-.46,1.34-.86,1.74-.56.56-.35.9.07,1.36.18-.22.32-.45.52-.6.11-.08.35-.11.45-.04.1.06.16.32.11.43-.42.97-.88,1.92-1.31,2.88-.06.14-.06.31-.09.46.16,0,.33.03.48-.01.26-.09.5-.27.77-.32.19-.03.46.04.6.18.07.07-.03.39-.13.55-.39.63-.84,1.22-1.19,1.87-.21.39-.11.87.34,1.05.22.09.57-.08.83-.2.23-.1.41-.32.64-.43.15-.07.35-.04.52-.06,0,.18.08.39.02.54-.32.73-.68,1.44-1.43,1.86-.49.28-.45.53.06.81.59.33,1.15.46,1.76.02.15-.11.46.02.7.04-.07.24-.06.54-.21.71-.2.22-.53.33-.79.5-.11.07-.18.19-.27.29.11.09.2.23.32.26.18.04.4-.03.58.02.29.08.56.22.85.34-.24.32-.45.66-.72.94-.11.11-.37.05-.63.08,0,.3.06.61-.02.88-.07.25-.29.45-.43.69-.1.17-.26.38-.23.54.03.14.3.22.44.35.2.17.49.32.55.53.13.43.39.6.79.75.39.14.72.46,1.1.66.17.09.4.09.6.12.02-.24.14-.53.04-.7-.18-.31-.51-.53-.72-.82-.14-.2-.19-.48-.28-.72.23-.04.47-.08.7-.13.06-.01.12-.03.22-.05.08-.53.18-1.03-.35-1.45-.15-.12-.1-.48-.14-.74.21-.01.42-.02.63-.03.13,0,.26-.01.39-.02-.03-.18,0-.39-.09-.54-.27-.46-.58-.89-.85-1.41.71.28.91.07,1.13-.62.3-.94.84-1.79.77-2.84,0-.11.38-.37.46-.33.23.12.59.42.55.55-.3,1.07.35,1.99.46,2.98.04.35.47.7.79.95.72.55.75.62.43,1.44-.06.15.01.49.13.57.53.32.55.74.35,1.23-.25.62-.46,1.2.26,1.68.09.06.06.47-.04.63-.16.24-.45.4-.66.61-.33.32-.31.71,0,.97.15.13.52.05.77,0,.25-.04.49-.15.74-.23.06.07.11.14.17.21-.32.38-.65.75-.95,1.15-.12.15-.28.41-.22.52.07.14.33.22.52.27.16.04.34-.01.52-.01.54,0,.75.26.74.8,0,.27.15.54.2.81.04.19.05.4.03.59-.02.11-.14.21-.22.32-.83,1.15-.79,1.12.11,2.23.33.4.47,1,.57,1.53.15.76.13,1.56.28,2.32.11.54.32,1.07.59,1.55.25.45.11.64-.29.77-.26.09-.52.15-.78.23.01.13,0,.22.03.25.53.43.75.86.3,1.52-.1.15.12.66.33.87.85.87,1.77,1.66,2.61,2.53.35.36.57.86.93,1.43-.6.08-1.02.16-1.44.18-.61.03-1.21,0-1.82,0-49.58,0-99.16,0-148.74,0-4.92,0-9.84,0-14.76-.02-.33,0-.83-.15-.97-.39-.26-.45.08-.83.48-1.12.67-.48.8-.9.54-1.68-.07-.21-.14-.41-.22-.61-.28-.77-.26-.78.49-1.08.2-.08.33-.32.49-.48.17-.16.32-.35.52-.45.38-.18.4-.41.2-.73-.35-.53-.75-1.04-1.03-1.61-.1-.21.06-.58.19-.83.06-.12.34-.13.56-.21-.23-.23-.47-.43-.64-.67-.09-.13-.14-.4-.07-.5.08-.11.33-.15.5-.15.3,0,.62.16.89.08.27-.07.57-.3.7-.55.07-.15-.13-.49-.29-.68-.16-.19-.46-.25-.62-.43-.16-.18-.24-.45-.35-.67.25-.12.49-.28.75-.33.13-.03.3.18.46.19.24.01.6.03.71-.11.15-.18.23-.58.13-.78-.23-.43-.62-.77-.9-1.18-.27-.4-.48-.85-.71-1.28.05-.05.09-.09.14-.14.49.27.98.55,1.54.86-.27-.9-.51-1.65-.71-2.41-.13-.48-.04-.83.61-.68.12.03.41-.11.41-.18,0-.16-.08-.36-.2-.47-.69-.64-.67-.91.06-1.54.24-.2.41-.49.58-.76.28-.48.54-.97.83-1.52-.43-.41-.28-.87.02-1.4.18-.32.15-.77.22-1.16.05-.28.05-.61.2-.82.09-.13.43-.16.64-.13.09.01.2.33.18.48-.28,1.59.68,2.65,1.54,3.76.82.02.98.4.62,1.1-.02.05.17.21.14.18.57-.15,1.03-.25,1.47-.41.25-.09.46-.29.69-.44-.15-.17-.32-.32-.43-.51-.22-.35-.4-.73-.66-1.21-.44.04-1.01-.1-1.21-.81-.08-.28-.2-.72-.07-.85.31-.31.76-.28,1.11.04.48.42,1,.5,1.57.34.02-.06.03-.13.05-.19-.55-.17-1.08-.39-1.64-.5-.82-.17-1.18-.77-.74-1.36.21-.29.41-.26.8-.17.78.18,1.63.09,2.45.08.02,0,.12-.47.03-.57-.29-.31-.69-.51-1-.81-.38-.36-.72-.77-1.03-1.19-.07-.1-.01-.41.09-.49.11-.09.38-.08.52,0,.39.22.75.49,1.19.79.26-.44.51-.79.68-1.18.21-.48-.04-.84-.7-1.08-1.12-.42-1.58-1.21-1.3-2.41.62.32,1.22.64,1.83.95.06-.05.12-.1.17-.15-.19-.36-.39-.7-.55-1.07-.29-.69-.58-1.39-.81-2.1-.06-.18.1-.43.15-.64.2.08.4.15.6.23.12.05.29.18.36.14.13-.07.31-.28.28-.37-.14-.39-.3-.79-.54-1.12-.39-.53-.38-.65.16-1.01.33-.22.66-.49.89-.82.5-.7.96-1.43,1.38-2.18.14-.26.16-.61.16-.93,0-.23-.2-.49-.15-.68.07-.26.26-.61.48-.69.36-.13.61.14.63.53.03.48,0,.95.03,1.43.06.86.49,1.63.3,2.57-.11.53.28,1.26.94,1.59.1.05.18.12.27.19,1.35.97,1.33.96.35,2.29-.14.18-.04.54-.05.81.18-.1.4-.16.54-.3.26-.24.45-.19.64.07.33.46.29.95.07,1.42-.34.74-.72,1.46-1.19,2.38.54-.32.91-.56,1.3-.75.19-.1.43-.11.64-.16,0,.2.01.41-.02.61-.13.92-.87,1.4-1.45,2-.27.28-.37.48-.18.89.15.32.03.77.03,1.3.28-.13.52-.22.73-.35.14-.09.25-.23.38-.36.25-.25.57-.54.88-.22.35.38-.03.66-.3.9-.49.43-1.01.82-1.47,1.28-.16.16-.31.52-.24.68.08.19.41.32.65.38.41.09.83.13,1.25.14.14,0,.32-.09.41-.19.62-.83.68-.85,1.65-.43.13.06.3.01.45.01-.01-.14,0-.29-.04-.42-.16-.44-.33-.88-.51-1.31-.16-.37-.34-.73-.55-1.17.13,0,.3-.01.47,0,.22.02.44.06.65.09-.03-.23,0-.5-.1-.69-.32-.58-.69-1.13-1.05-1.7,1.32-.45,2-1.35,1.92-2.78,0-.1,0-.28.05-.31.83-.47.35-1.26.46-1.9.04-.21-.04-.45.02-.64.05-.15.22-.35.35-.36.15-.02.33.13.46.25.07.06.08.2.08.31-.1,1.39.61,2.44,1.45,3.42.08.1.21.16.32.23.84.59.9.99.26,1.81-.08.1-.14.21-.21.3.04.06.06.11.09.12,1.21.34,1.35.7.69,1.8-.17.29-.32.59-.53,1,.31-.01.44-.04.56-.02.28.04.71.03.79.18.11.21.02.61-.12.83-.23.35-.56.65-.89.92-.27.23-.53.44-.27.8.26.34.67.45.96.14.94-1.04,2.27-1.36,3.43-1.99,2.18-1.19,4.34-2.43,6.43-3.78.8-.51,1.37-1.37,2.05-2.06.77-.78,1.36-.9,2.15-.17,1.46,1.35,3.27,1.69,5.11,2,.87.15,1.77.18,2.63.4.99.25,1.8-.21,2.68-.47.86-.25,1.71-.64,2.59-.73,1-.11,1.91-.34,2.76-.85.89-.53,1.78-.94,2.88-.58.3.1.84-.11,1.09-.36,1.15-1.14,2.26-2.33,3.35-3.53.63-.7,1.38-1.12,2.26-1.45.91-.34,1.72-.92,2.58-1.41.19-.11.35-.26.54-.36,1.26-.63,2.32-1.51,3.13-2.67.66-.94,1.5-1.48,2.7-1.28.82.14,1.53-.19,2.18-.66.42-.3.8-.69,1.26-.91.53-.25,1.13-.33,1.69-.51.33-.1.68-.2.94-.4.42-.33.77-.76,1.17-1.12.38-.34.77-.34,1.12.09.22.27.43.57.72.75.33.21.74.42,1.1.4.66-.03,1.18.16,1.66.58,1.07.93,2.2,1.72,3.66,1.99.43.08.81.6,1.15.98.33.36.56.82.89,1.2.52.6,1.19.94,1.99.96.94.01,1.71.34,2.51.89.74.51,1.69.74,2.57,1.03.88.29,1.76.61,2.67.73.62.09,1.29-.06,1.91-.24.85-.25,1.65-.24,2.34.31,1.74,1.38,3.71,1.89,5.89,1.73.76-.05,1.35.29,1.91.79,1.21,1.07,2.44,2.15,3.75,3.11,2.22,1.63,4.68,1.93,7.34,1.18.59-.17,1.32,0,1.95.14.88.19,1.72.56,2.6.75.73.16,1.39-.16,2-.59,1.28-.91,1.61-.91,2.71.23.81.84,1.52,1.76,2.3,2.63.24.27.52.54.83.69,1.1.52,1.96,1.26,2.53,2.34.25.46.6.61,1.08.41.5-.21.57-.58.29-1.04-.19-.3-.29-.65-.46-.96-.09-.16-.26-.29-.4-.42-.34-.31-.74-.57-1.03-.93-.11-.14-.05-.51.06-.69.06-.1.42-.05.62,0,.66.18,1.31.41,1.96.6.1.03.24-.09.36-.14-.09-.09-.17-.23-.28-.27-.53-.18-1.07-.35-1.61-.5-.43-.12-.47-.43-.48-.8,0-.43.27-.5.6-.5.54,0,1.08.01,1.62,0,.44-.01.54-.3.32-.61-.31-.46-.7-.86-1.06-1.29-.16-.2-.35-.39-.45-.61-.05-.12.02-.36.13-.45.09-.08.32-.09.45-.04.26.11.52.24.71.43.41.38.74.16,1-.14.39-.46.2-1.33-.29-1.68-.75-.53-1.19-1.26-1.39-2.16.79-.05,1.42,1.35,2.41.14-1.4-.66-1.23-2.07-1.71-3.19Zm-80.12,14.93c.33-.11.71-.16,1-.34,1.44-.92,2.85-1.88,4.27-2.83.13-.09.27-.17.52-.32-.09.27-.11.42-.17.54-.42.77-.85,1.55-1.29,2.31-.14.24-.35.43-.52.65-.29.39-.59.78-.84,1.2-.09.15-.12.48-.03.55.2.16.49.3.73.28.31-.03.6-.25.91-.33.47-.12.96-.23,1.44-.28.9-.1,1.82-.1,2.7-.27.34-.07.65-.48.91-.79.3-.36.51-.79.81-1.15.08-.1.34-.06.52-.09,0,.15.06.34,0,.45-.39.66-.77,1.33-1.23,1.94-.51.67-.86,1.34-.74,2.21.09.63.54.83,1.05.44.2-.15.37-.34.55-.51.06.02.12.05.18.07-.05.19-.06.39-.14.56-.38.71-.78,1.41-1.16,2.12-.26.48-.21.91.25,1.26.19.14.36.31.53.48.41.41.81.4,1.27.08.2-.14.52-.23.75-.18.65.15,1.14-.04,1.58-.5.48-.5.96-1,1.46-1.47.74-.71,1.6-.61,2.21.23.71.97.74,2.23.12,3.3-.66,1.15-1.28,2.32-1.92,3.49.05.04.1.08.14.12.62-.5,1.24-.99,1.86-1.49.09.12.14.17.17.22.4.77.42.79.96.1.67-.85,1.33-1.71,1.97-2.58.39-.53.88-.83,1.55-.72.53.09.68.4.43.88-.14.27-.31.52-.4.81-.04.12.05.36.16.43.08.05.31-.03.42-.12,1.02-.84,2.03-1.68,3.02-2.54.2-.17.29-.47.42-.71-.26-.11-.51-.31-.77-.32-1.06-.03-2.12,0-3.18,0-.66,0-1.32-.01-1.74-.64-.81-1.2-1.63-2.4-2.41-3.61-.14-.22-.25-.57-.17-.78.52-1.33.06-2.43-.79-3.42-.98-1.15-1-2.28-.27-3.58.97-1.73,1.53-3.58,1.27-5.6-.12-.9.27-1.55,1.05-1.98.58-.32.93-.79,1.04-1.48.21-1.39.31-2.82.76-4.13.43-1.26-.1-2.01-.85-2.8-.23-.24-.46-.23-.73,0-.36.31-.74.6-1.15.83-1.05.6-2.1,1.19-3.18,1.73-1.14.57-2.22,1.29-3.58,1.37-.48.03-.97.41-1.4.71-1.4,1.01-2.75,2.11-4.17,3.08-1.45.98-3.06,1.74-4.43,2.81-1.38,1.07-2.55,2.4-3.82,3.61-.61.58-1.29,1.08-2.16,1.04-.71-.04-1.2.28-1.49.82-.99,1.86-2.58,3.33-3.44,5.27-.22.5-.41,1.04.08,1.43.49.4.9-.08,1.15-.39.72-.91,1.8-.86,2.75-1.06.71-.16,1.08-.44,1.39-1.06.33-.64.71-1.34,1.26-1.76,1.34-1.01,2.78-1.9,4.22-2.79.26-.16.66-.08.99-.12-.18.25-.33.53-.54.75-.41.41-1,.69-.88,1.4.15.91-.2,1.65-.69,2.36-.18.26-.33.54-.49.82-.02,0-.04,0-.05.02,0,0,0,.03,0,.04.01-.02.02-.05.03-.07Zm62.85,3.33c0,.07.02.14.03.2-.62.17-1.23.34-1.85.49-.77.19-1.02.69-.77,1.55.25.85.58,1.02,1.38.72.78-.29,1.97-.28,3.09.07-.57.25-1.01.5-1.49.66-.81.27-1.43.78-1.5,1.62-.07.8-.56,1.19-1.07,1.64-.72.64-1.51,1.25-2.1,2-.91,1.16-.82,1.39.31,2.33.75.62,1.08.61,1.67-.13.78-.99,1.85-1.27,3.04-1.29-.6.42-1.23.77-1.86,1.13-.46.27-.89.57-.83,1.2.11,1.08-.28,1.9-1.21,2.47-.17.1-.33.22-.46.36-.09.1-.19.28-.15.37.04.1.24.22.35.2.95-.17,1.92-.29,2.84-.57,1.13-.34,2.21-.82,3.32-1.22.24-.09.51-.08.77-.12.02.06.04.11.06.17-.36.25-.71.53-1.1.75-.64.36-1.33.64-1.94,1.05-.29.2-.61.65-.57.96.03.3.44.63.77.82.37.21.82.25,1.23.41.71.27.75.44.4,1.11-.09.17-.07.39-.1.59.2.02.41.1.59.05,1.47-.37,2.94-.71,4.38-1.16.68-.22,1.39-.55,1.93-1.01.86-.75,1.7-1.34,2.91-.97.14.04.3.02.45,0,.88-.15,1.51-1.08,1.14-1.73-1.08-1.9-2.5-3.42-4.7-4.02-.35-.1-.71-.18-1.06-.28-1.09-.31-1.42-.73-1.39-1.87.02-1,.1-1.99.16-2.98.04-.59.31-1.01.88-1.25.66-.28,1.09-.78,1.2-1.51.29-1.86.61-3.71.84-5.58.05-.36-.12-.85-.36-1.12-.58-.64-.87-1.37-1.03-2.2-.03-.18-.22-.32-.34-.48-.16.12-.42.22-.46.37-.24,1.04-1.03,1.35-1.92,1.61-.57.17-1.23.35-1.61.76-.99,1.04-2.15,1.81-3.38,2.5-.48.27-.93.58-1.53.96.48.19.77.3,1.06.41Zm-88.29,7.02c-.78.43-1.57.85-2.2,1.2.09.71.13,1.26.24,1.8.09.46.27.91.4,1.37.5-.15,1-.3,1.49-.46.05-.02.08-.11.14-.13.59-.24,1.18-.68,1.78-.68,1.29,0,2.46-.32,3.65-.75,1.31-.47,2.66-.56,3.9.35.45.33.93.61,1.41.89.12.07.3.04.46.06-.02-.17.01-.4-.08-.51-.43-.5-.9-.98-1.36-1.46-1.18-1.21-1.98-2.55-1.81-4.34.14-1.4-.19-2.71-1.28-3.66-.8-.71-.99-1.55-.99-2.55,0-.32-.22-.65-.41-.94-.21-.33-.5-.61-.75-.91-.22-.26-.41-.55-.66-.78-.36-.34-.77-.63-1.16-.94-.58-.47-.7-1.04-.44-1.74.21-.56.37-1.15.46-1.75.03-.2-.18-.53-.37-.64-.16-.09-.48.02-.68.14-.44.27-.86.58-1.25.91-.75.64-1.48,1.3-2.21,1.96-.14.12-.29.24-.44.36-.64.5-1.34.94-1.9,1.51-.55.57-1.07,1.11-1.86,1.33-.5.14-1.08.25-1.46.57-1.45,1.2-2.83,2.48-4.23,3.74-.34.3-.3.61-.03.97.47.62.39.7-.39.85-.54.1-1.05.37-1.65.6.55.7,1.11,1.05,1.77,1.06.34,0,.76-.2,1.01-.45.58-.57,1.05-1.26,1.63-1.84.31-.31.71-.57,1.11-.75.98-.45,1.98-.86,2.98-1.26.55-.23,1.12-.43,1.69-.62.53-.18.67.2.56.55-.17.54-.39,1.13-.76,1.53-.63.67-1.41,1.2-2.12,1.8-.25.21-.45.45-.15.76.28.29.56.27.84-.01.16-.16.35-.29.55-.41.7-.42,1.4-.85,2.13-1.22.54-.27,1.12-.46,1.69-.69.03.07.07.13.1.2-.58.96-1.29,1.82-2.32,2.33-1.47.73-2.97,1.4-4.11,2.65-.15.16-.3.33-.45.49.02.05.05.11.07.16.69,0,1.43.15,2.07-.03,1.74-.49,3.48-.83,5.4-.6Zm69.36,9.59c.42.17.75.39,1.09.43.79.1,1.59.13,2.39.14.46,0,.68-.29.56-.74-.32-1.28-.64-2.56-1.02-3.82-.21-.69-.62-1.28-1.3-1.63-.17-.09-.31-.33-.37-.53-.43-1.33-.69-2.73-1.59-3.87-.41-.52-.4-1.1-.33-1.72.04-.4-.1-.83-.23-1.23-.04-.13-.3-.28-.45-.27-1.11.05-2.77,1.29-3.02,2.36-.27,1.13-.99,1.81-1.93,2.4-1,.63-1.99,1.29-2.9,2.04-2.97,2.46-5.96,4.88-9.58,6.37-.42.18-.31.44-.08.64.15.13.39.16.6.19.9.14,1.82.17,2.69.4,1.12.3,2.07.12,2.99-.57.54-.4,1.15-.71,1.83-1.12-.2.86-.14.9.6.92.64.01,1.32-.03,1.9.18.75.29,1.45.41,2.2.13.47-.18.92-.42,1.42-.66.13.78.53.73,1.14.54.58-.17,1.26-.25,1.84-.12.68.15,1.18.11,1.55-.47ZM90.41,7.69c.2,1.38.34,2.62.58,3.85.21,1.07.9,1.7,1.98,2,.56.16,1.08.53,1.54.9,1.23.99,2.41,2.04,3.63,3.04.13.11.37.07.56.11-.02-.22,0-.45-.08-.65-.07-.17-.25-.29-.39-.43-.37-.36-.81-.68-1.1-1.1-.22-.32-.45-.85-.33-1.16.25-.64.13-1.13-.13-1.7-.22-.47-.52-.63-1.04-.69-.52-.06-1.11-.27-1.48-.62-.7-.66-1.29-1.46-1.9-2.21-.34-.42-.61-.9-.96-1.3-.14-.17-.42-.25-.65-.29-.08-.01-.21.21-.23.24Zm-2.62,9.52c-.24.2-.48.31-.57.5-.09.18-.09.49.01.64.34.51.49.94.1,1.53-.14.22,0,.7.13,1.01.16.39.58.72.64,1.1.14,1.02.75,1.48,1.64,1.78,1.06.36,2.08.82,2.88,1.68.39.42.89.73,1.37,1.05.13.09.38,0,.58-.02-.01-.21.06-.49-.05-.63-.41-.53-.89-.99-1.31-1.51-.33-.41-.6-.87-.91-1.31-.4-.57-.72-1.27-1.24-1.69-1.2-.98-2.21-2.05-2.76-3.52-.08-.22-.31-.39-.5-.62ZM18.21,26.08c-.31.08-.73.1-1.05.29-.26.16-.49.5-.54.79-.03.17.3.47.53.6.7.41,1.43.79,2.17,1.12.26.12.63.18.89.09.81-.29,1.59-.65,2.36-1.02.18-.09.44-.43.41-.48-.35-.52-.18-1.34-1.11-1.58-.51-.13-.84-.21-1.28.08-.32.2-.72.36-1.09.37-.4.02-.8-.16-1.29-.26Zm48.58,14.18c0-.15.01-.2,0-.23-.03-.06-.07-.11-.12-.15-2.03-1.55-4.11-2.98-6.68-3.55-.8-.18-1.65-.65-2.21-1.24-.63-.68-1.32-1.15-2.15-1.46-.18-.07-.44.05-.66.08.13.2.23.45.41.58.52.4,1.24.66,1.59,1.17.98,1.4,2.27,2.12,3.94,2.13.88,0,1.53.49,2.24.86,1.04.56,2.05,1.17,3.09,1.74.15.08.37.04.56.06Zm52.26-3.95c-.13-.24-.18-.36-.26-.45-.32-.35-.61-.75-1-1.01-2.09-1.43-4.1-3.01-6.51-3.91-.31-.12-.57-.39-.87-.53-.21-.09-.47-.08-.7-.12.07.24.11.49.22.71.06.12.23.18.37.26,1.52.87,3.07,1.7,4.57,2.62.83.51,1.57,1.18,2.37,1.75.42.3.85.58,1.31.83.1.06.31-.08.53-.14Zm-67.85-13.99c-.72-1.27-2.5-2.44-4.13-2.57-.76-.06-1.24-.36-1.61-.99-.18-.3-.48-.52-.89-.32.49,1.37,1.48,2.52,3.12,2.32.61-.08,1.02.27,1.41.65.58.55,1.26.85,2.09.92Zm90.85,7.86c-.25-.31-.43-.78-.75-.9-1.05-.4-1.35-1.33-1.76-2.2-.23-.48-.46-.97-.76-1.41-.11-.16-.41-.2-.62-.3.02.24-.05.55.07.72.48.69.8,1.42.81,2.28,0,.19.15.37.24.56.41.89,1.26,1.25,2.04,1.69.13.07.34.14.44.08.12-.07.17-.28.29-.52Zm-.19,7.23l.05-.15c-.47-.3-.94-.6-1.42-.88-.59-.35-1.29-.6-1.75-1.07-.5-.51-.86-.32-1.29-.05-.12.08-.25.28-.23.4.02.12.22.28.36.29.77.07,1.28.54,1.79,1.06.19.2.5.36.77.38.57.06,1.15.02,1.73.02Zm-120.51-5.98c.4,0,.75-.03,1.09,0,.34.04.66.19,1,.24.27.04.57.04.83-.05.17-.05.37-.28.38-.44.02-.2-.07-.49-.22-.61-.86-.69-2.6-.23-3.09.85Zm.9.57c-.64-.02-1.04.09-.95.61.03.19.37.43.6.46.45.05.74-.26.72-.7,0-.17-.31-.32-.36-.37Z"/>
  <path class="cls-1" d="m137.51,91.02h-12.47v-29.4h12.44v11.01c.54-.45.97-.79,1.39-1.15,3.66-3.12,7.31-6.24,10.96-9.38.41-.36.82-.53,1.39-.53,5.07.02,10.15.01,15.22.01h.44l.06.12c-4.83,3.66-9.66,7.31-14.54,11.01,5.1,6.09,10.16,12.14,15.3,18.28-.3.02-.48.05-.66.05-4.68,0-9.37,0-14.05.01-.49,0-.78-.16-1.06-.56-2.57-3.7-5.16-7.38-7.74-11.07-.1-.14-.21-.26-.35-.42-1.71,1.31-3.34,2.67-5.09,3.86-1.03.7-1.35,1.49-1.28,2.68.1,1.58.02,3.16.02,4.75,0,.23,0,.47,0,.73Z"/>
  <path class="cls-1" d="m73.95,61.63v6.26h-20.77v4.63h19.26v6.03h-19.28v5.77h21.38v6.69h-33.88v-29.37h33.28Z"/>
  <path class="cls-1" d="m121.06,91.05c-4.29,0-8.5,0-12.7-.02-.19,0-.48-.25-.57-.45-.57-1.31-1.09-2.64-1.67-3.94-.08-.18-.35-.4-.53-.4-4.53-.02-9.06,0-13.59,0-.02,0-.04.01-.12.04-.56,1.38-1.11,2.81-1.71,4.22-.1.23-.38.53-.58.53-4.1.03-8.19.02-12.4.02.31-.61.58-1.15.86-1.7,4.14-8.06,8.28-16.12,12.42-24.18.53-1.04,1.08-2.07,1.61-3.11.16-.31.34-.47.73-.47,4.21.02,8.41.02,12.62,0,.36,0,.58.09.76.44,4.8,9.38,9.62,18.75,14.44,28.12.14.27.26.54.44.9Zm-17.7-11.29c-1.47-3.5-2.9-6.9-4.38-10.42-1.47,3.55-2.89,6.96-4.33,10.42h8.71Z"/>
  <path class="cls-1" d="m12.58,91.03H.03v-29.37c.15-.02.32-.06.48-.06,7.3,0,14.61-.02,21.91.05,2.72.03,5.36.57,7.81,1.9,5.21,2.84,5.29,10.87.33,14.07-2.29,1.48-4.83,2.16-7.48,2.32-3.13.19-6.28.14-9.42.2-.34,0-.68,0-1.08,0v10.89Zm.03-23.52v6.57c1.54,0,3.04.09,4.52-.03,1.1-.09,2.25-.31,3.25-.76,2.04-.91,2.26-3.26.48-4.61-.53-.4-1.23-.72-1.88-.78-2.1-.2-4.22-.27-6.37-.4Z"/>
  <path class="cls-1" d="m105.46,112.55c0-1.57,0-3.15,0-4.72,0-.81.03-.83.9-.67v6.97c-.99.17-.98.16-1.42-.71-.76-1.52-1.53-3.03-2.39-4.72v5.47h-.87c0-2.34,0-4.67,0-6.99.88-.23.95-.2,1.35.58.81,1.6,1.62,3.2,2.43,4.8Z"/>
  <path class="cls-1" d="m64.82,107.1h.89v7c-.92.24-.98.2-1.41-.64-.79-1.56-1.58-3.11-2.42-4.75v5.44h-.91v-7.02c.68-.2,1.11-.05,1.44.64.73,1.58,1.55,3.12,2.41,4.82v-5.51Z"/>
  <path class="cls-1" d="m153.69,114.17h-1.01v-7.15c1.11.06,2.21.04,3.29.19.88.12,1.33.73,1.44,1.61.11.89-.26,1.66-1.02,2.07-.15.08-.31.15-.51.24.56.99,1.13,1.97,1.72,3.01-.67.12-1.16.13-1.45-.58-.23-.56-.63-1.04-.87-1.59-.31-.74-.83-.89-1.6-.68v2.88Zm0-3.68c.73-.08,1.41-.08,2.04-.25.65-.17.74-.76.69-1.36-.04-.53-.39-.83-.87-.9-.61-.08-1.22-.07-1.86-.11v2.62Z"/>
  <path class="cls-1" d="m111.86,114.18c0-2.28,0-4.48.02-6.69,0-.14.25-.39.4-.4.51-.05,1.04-.03,1.56,0,1.88.1,2.95,1.12,3.07,3.01.08,1.27.02,2.55-1.12,3.4-.45.33-1.03.57-1.58.65-.74.11-1.51.03-2.35.03Zm1.03-6.25v5.45c1.11.07,2.15.02,2.68-1.08.57-1.17.59-2.41-.11-3.54-.59-.94-1.58-.91-2.57-.83Z"/>
  <path class="cls-1" d="m10.11,107.13q.96-.12.96.76c0,.69,0,1.38,0,2.1h2.84v-2.87h.94v7.05h-.89v-3.21h-2.87v3.2h-.97v-7.03Z"/>
  <path class="cls-1" d="m75.12,111.34q-1.4-.1-1.32-.81h2.25c0,.94.02,1.86-.02,2.79,0,.17-.19.38-.35.49-1.46,1.02-3.43.58-4.34-.95-1.09-1.84-.51-4.61,1.16-5.55,1.13-.63,2.48-.44,3.43.55-.16.18-.32.37-.48.56-.26-.16-.48-.34-.74-.45-.93-.4-2.03-.04-2.48.92-.58,1.24-.61,2.52.12,3.73.47.78,1.59,1.1,2.4.7.16-.08.33-.29.35-.46.05-.49.02-.99.02-1.52Z"/>
  <path class="cls-1" d="m20.65,107.1h4.36v.81h-3.35v2.1h2.83v.85h-2.84v2.52h3.49c.01.29.03.51.04.78h-4.52v-7.06Z"/>
  <path class="cls-1" d="m29.93,114.11c.23-.67.45-1.34.68-2.01.52-1.54,1.02-3.08,1.57-4.6.07-.19.36-.37.58-.41.3-.06.62-.07.77.37.71,2.17,1.45,4.34,2.18,6.5.02.06,0,.12,0,.18-.7.22-1.1.02-1.22-.74-.07-.46-.27-.9-.42-1.39h-2.47c-.15.49-.35.97-.45,1.48-.14.7-.53.86-1.21.62Zm3.9-2.8c-.33-1.11-.65-2.15-1.01-3.36-.37,1.24-.68,2.28-.99,3.36h2Z"/>
  <path class="cls-1" d="m133.31,111.98c-.24.74-.48,1.47-.72,2.2h-.98c.3-.89.58-1.74.86-2.58.4-1.21.8-2.41,1.21-3.62.33-.96.33-.96,1.4-.86.78,2.31,1.57,4.64,2.35,6.97-.93.26-.98.24-1.23-.62q-.43-1.49-2.02-1.49c-.28,0-.56,0-.88,0Zm2.22-.68c-.34-1.12-.65-2.16-1.01-3.35-.36,1.21-.67,2.26-1,3.35h2.01Z"/>
  <path class="cls-1" d="m96.7,114.13q-.93.17-1.19-.72c-.14-.47-.28-.94-.43-1.42h-2.47c-.23.73-.46,1.45-.69,2.17h-.99c.33-.99.64-1.92.96-2.86.43-1.29.85-2.58,1.32-3.85.07-.18.39-.35.61-.36.22-.01.61.12.67.28.77,2.2,1.5,4.41,2.23,6.62.01.04,0,.08-.01.13Zm-2.78-5.95s-.1,0-.14-.01c-.31,1.03-.61,2.07-.93,3.13h1.99c-.32-1.07-.62-2.09-.92-3.11Z"/>
  <path class="cls-1" d="m145.24,113.38h1.66c.02.26.03.49.05.77h-4.44v-.75h1.67v-5.45h-1.65v-.84h4.36v.8h-1.64v5.48Z"/>
  <path class="cls-1" d="m52.66,107.93h-1.7v-.85c1.37,0,2.73-.02,4.08.01.59.02.32.46.31.83h-1.66v5.47h1.68v.78h-4.42v-.76h1.71v-5.46Z"/>
  <path class="cls-1" d="m43.53,114.16h-1.03v-6.24c-.68,0-1.3.03-1.92-.02-.14-.01-.34-.26-.37-.43-.02-.11.22-.38.34-.38,1.75-.03,3.49-.02,5.27-.02v.84h-2.29v6.26Z"/>
  <path class="cls-1" d="m131.1,40.01s-.03-.03-.04-.05c.02-.01.03-.04.05-.03.02,0,.03.03.04.04-.02.01-.03.03-.05.04Z"/>
</svg>