<?xml version="1.0" encoding="utf-8"?>
<!-- Generator: Adobe Illustrator 27.9.1, SVG Export Plug-In . SVG Version: 6.00 Build 0)  -->
<svg version="1.1" id="Layer_1" xmlns="http://www.w3.org/2000/svg" xmlns:xlink="http://www.w3.org/1999/xlink" x="0px" y="0px"
	 viewBox="0 0 512 512" style="enable-background:new 0 0 512 512;" xml:space="preserve">
<style type="text/css">
	.st0{fill:#FF0000;}
	.st1{fill:#FFFFFF;}
</style>
<path class="st0" d="M0,457C0,323,0,189,0,55c0.3-1.1,0.7-2.2,0.9-3.3C4.7,32.6,14.7,17.8,31.7,8.4C38.9,4.5,47.2,2.7,55,0
	c134,0,268,0,402,0c0.9,0.3,1.9,0.7,2.8,0.9c19,3.4,33.8,13.2,43.2,30c4.1,7.4,6,16,9,24.1v402c-0.3,0.9-0.7,1.9-0.9,2.8
	c-3.6,19.5-13.9,34.6-31.3,44c-7,3.8-15.2,5.5-22.8,8.2H343V318.8h66.6c4.2-27.5,8.4-54.6,12.6-82.4h-78.5c0-21.4-1.3-42.2,0.4-62.9
	c1.6-20.4,15.6-32.8,35.9-34.5c11.6-1,23.3-0.7,34.9-0.9c3.4-0.1,6.9,0,10,0c0.4-1,0.6-1.3,0.6-1.6c0-21.8,0.1-43.7,0-65.5
	c0-1.3-2-3.3-3.3-3.6c-4.5-1-9.2-1.5-13.8-2c-23-2.5-46.1-5.2-69.2-1.4c-35,5.7-61.2,23.3-75.6,56.5c-6.6,15.1-9.5,31.2-9.6,47.7
	c-0.2,20.8-0.1,41.7-0.1,62.5c0,1.8,0,3.5,0,5.9h-72.4v82.5h72.4v6.4c0,60,0,120,0,180c0,2.2,0.2,4.3,0.2,6.5H55
	c-0.9-0.3-1.8-0.7-2.8-0.9c-16.9-3-30.2-11.5-40.5-25.2C5.3,477.2,2.3,467.3,0,457L0,457z"/>
<g>
	<path class="st1" d="M251.6,384.1c-37.2,0-74.4,0.3-111.7-0.1c-36.4-0.4-58.3-18.5-59.5-55.4c-1.4-45.1-1.4-90.3,0.3-135.4
		c1.2-30.4,18-50.7,50.1-51c83.6-0.8,167.3-0.7,250.9,0.1c30,0.3,47.6,19,48.8,47.7c2.1,47.7,2.2,95.6,0.2,143.3
		c-1.4,33.1-23.1,49.8-55.6,50.4c-41.2,0.8-82.4,0.2-123.6,0.2C251.6,384,251.6,384,251.6,384.1L251.6,384.1z M222.9,314.6
		c31.4-18.2,58.3-33.8,90.5-52.4c-32.5-18.5-59.2-33.7-90.5-51.5L222.9,314.6L222.9,314.6z"/>
	<path class="st0" d="M222.9,314.6V210.7c31.3,17.8,58,33,90.5,51.5C281.2,280.9,254.3,296.5,222.9,314.6L222.9,314.6z"/>
</g>
<polygon class="st0" points="215.5,141.6 380,141.6 458.5,141.6 458.5,54 261.5,54 "/>
<polygon class="st0" points="211.5,384.1 370.5,384.1 370.5,428 370.5,512 211.5,512 "/>
</svg>
